<?xml version="1.0" encoding="UTF-8" standalone="no"?>
<!-- Uploaded to: SVG Repo, www.svgrepo.com, Generator: SVG Repo Mixer Tools -->

<svg
   width="800px"
   height="800px"
   viewBox="0 0 192 192"
   fill="none"
   version="1.1"
   id="svg6"
   sodipodi:docname="icon.svg"
   inkscape:version="1.2.2 (b0a84865, 2022-12-01)"
   inkscape:export-filename="icon.png"
   inkscape:export-xdpi="96"
   inkscape:export-ydpi="96"
   xmlns:inkscape="http://www.inkscape.org/namespaces/inkscape"
   xmlns:sodipodi="http://sodipodi.sourceforge.net/DTD/sodipodi-0.dtd"
   xmlns="http://www.w3.org/2000/svg"
   xmlns:svg="http://www.w3.org/2000/svg">
  <defs
     id="defs10" />
  <sodipodi:namedview
     id="namedview8"
     pagecolor="#ffffff"
     bordercolor="#000000"
     borderopacity="0.25"
     inkscape:showpageshadow="2"
     inkscape:pageopacity="0.0"
     inkscape:pagecheckerboard="0"
     inkscape:deskcolor="#d1d1d1"
     showgrid="false"
     inkscape:zoom="0.35211046"
     inkscape:cx="-95.140599"
     inkscape:cy="523.9833"
     inkscape:window-width="1534"
     inkscape:window-height="731"
     inkscape:window-x="87"
     inkscape:window-y="107"
     inkscape:window-maximized="0"
     inkscape:current-layer="svg6" />
  <rect
     style="fill:#ffffff;stroke:#000000;stroke-width:1.2;fill-opacity:1;stroke-dasharray:none"
     id="rect343"
     width="181.45174"
     height="177.67268"
     x="5.06528"
     y="7.5029769"
     ry="23.870426" />
  <g
     id="Page-1"
     stroke="none"
     stroke-width="1"
     fill="none"
     fill-rule="evenodd"
     transform="matrix(6.032171,-1.037885,1.037885,6.032171,30.901278,36.993028)"
     style="fill:#d43434;fill-opacity:1;stroke:#000000;stroke-width:0.289156;stroke-dasharray:none;stroke-opacity:1">
    <g
       id="Dribbble-Light-Preview"
       transform="translate(-102,-7439)"
       fill="#000000"
       style="fill:#d43434;fill-opacity:1;stroke:#000000;stroke-width:0.289156;stroke-dasharray:none;stroke-opacity:1">
      <g
         id="icons"
         transform="translate(56,160)"
         style="fill:#d43434;fill-opacity:1;stroke:#000000;stroke-width:0.289156;stroke-dasharray:none;stroke-opacity:1">
        <path
           d="m 57.570887,7282.193 c 0.729073,-0.845 1.220514,-2.022 1.086025,-3.193 -1.050633,0.04 -2.321707,0.671 -3.075048,1.515 -0.67649,0.749 -1.267029,1.9459 -1.108271,3.0939 1.171977,0.087 2.368222,-0.57 3.097294,-1.4159 m 2.628099,7.4318 c 0.02933,3.027 2.770678,4.034 2.801014,4.047 -0.02225,0.071 -0.437848,1.435 -1.443988,2.8449 -0.87064,1.218 -1.773639,2.431 -3.196392,2.457 -1.397473,0.025 -1.847455,-0.794 -3.446157,-0.794 -1.59769,0 -2.09722,0.768 -3.419865,0.819 -1.373205,0.049 -2.419793,-1.318 -3.2965,-2.5319 -1.793862,-2.483 -3.164033,-7.017 -1.323656,-10.0769 0.914121,-1.519 2.547203,-2.482 4.320842,-2.506 1.347924,-0.025 2.62102,0.869 3.445145,0.869 0.824125,0 2.371256,-1.075 3.997259,-0.917 0.680535,0.027 2.591696,0.263 3.818277,1.984 -0.0991,0.059 -2.280247,1.275 -2.255979,3.8049"
           id="apple-[#173]"
           style="fill:#d43434;fill-opacity:1;stroke:#000000;stroke-width:0.289156;stroke-dasharray:none;stroke-opacity:1" />
      </g>
    </g>
  </g>
  <path
     stroke="#000000"
     stroke-linecap="round"
     stroke-linejoin="round"
     stroke-width="13.2204"
     d="M 74.994423,131.18663 V 75.940641 l 48.746457,27.622999 z"
     id="path4"
     style="fill:#ffffff;stroke-width:1.76987;stroke-dasharray:none" />
</svg>
